<?xml version="1.0" encoding="UTF-8" standalone="no"?>
<!-- Created with Inkscape (http://www.inkscape.org/) -->

<svg
   width="210mm"
   height="297mm"
   viewBox="0 0 210 297"
   version="1.1"
   id="svg10474"
   inkscape:version="1.1 (c68e22c387, 2021-05-23)"
   sodipodi:docname="Logo.svg"
   inkscape:export-filename="D:\SourceControl\AmplitudeSoundboard\Brand\Icon.png"
   inkscape:export-xdpi="854.81738"
   inkscape:export-ydpi="854.81738"
   xmlns:inkscape="http://www.inkscape.org/namespaces/inkscape"
   xmlns:sodipodi="http://sodipodi.sourceforge.net/DTD/sodipodi-0.dtd"
   xmlns="http://www.w3.org/2000/svg"
   xmlns:svg="http://www.w3.org/2000/svg">
  <sodipodi:namedview
     id="namedview10476"
     pagecolor="#ffffff"
     bordercolor="#666666"
     borderopacity="1.0"
     inkscape:pageshadow="2"
     inkscape:pageopacity="0.0"
     inkscape:pagecheckerboard="0"
     inkscape:document-units="mm"
     showgrid="false"
     inkscape:zoom="4.192802"
     inkscape:cx="206.1867"
     inkscape:cy="291.80963"
     inkscape:window-width="1920"
     inkscape:window-height="1017"
     inkscape:window-x="-8"
     inkscape:window-y="-8"
     inkscape:window-maximized="1"
     inkscape:current-layer="layer2"
     inkscape:snap-nodes="true"
     showguides="true"
     inkscape:guide-bbox="true">
    <inkscape:grid
       type="xygrid"
       id="grid37333" />
  </sodipodi:namedview>
  <defs
     id="defs10471" />
  <g
     inkscape:groupmode="layer"
     id="layer2"
     inkscape:label="Base">
    <rect
       id="rect50996"
       width="30.427"
       height="30.427084"
       x="58.397648"
       y="61.798458"
       style="fill:#252a36;fill-opacity:1;stroke-width:0.264583"
       rx="4.9000001"
       ry="5"
       inkscape:export-filename="D:\SourceControl\AmplitudeSoundboard\Branding\IconLin.png"
       inkscape:export-xdpi="80.13913"
       inkscape:export-ydpi="80.13913" />
  </g>
  <g
     inkscape:label="Layer 1"
     inkscape:groupmode="layer"
     id="layer1">
    <text
       xml:space="preserve"
       style="font-style:normal;font-weight:normal;font-size:10.5833px;line-height:1.25;font-family:sans-serif;fill:#000000;fill-opacity:1;stroke:none;stroke-width:0.264583"
       x="77.81971"
       y="86.030045"
       id="text11327"><tspan
         sodipodi:role="line"
         id="tspan11325"
         style="font-style:normal;font-variant:normal;font-weight:normal;font-stretch:normal;font-family:'Sitka Display';-inkscape-font-specification:'Sitka Display';stroke-width:0.264583"
         x="77.81971"
         y="86.030045" /></text>
    <path
       id="path37335"
       style="fill:#f08a5d;stroke:#ebaeff;stroke-width:0.526;stroke-linecap:butt;stroke-linejoin:miter;stroke-opacity:1;fill-opacity:1;stroke-miterlimit:4;stroke-dasharray:none"
       d="m 67.197266,65.6875 c -1.866509,0.309784 -2.869891,2.130631 -3.722662,3.631703 -1.341451,2.515041 -2.240659,5.236513 -2.999995,7.975719 4.408855,0 8.817709,0 13.226563,0 1.014263,3.606822 1.908025,7.416281 4.240234,10.4375 0.769797,0.944801 2.197066,1.606441 3.305535,0.811599 1.783092,-1.123975 2.646162,-3.170479 3.527694,-4.997149 0.894062,-2.01889 1.574787,-4.125305 2.160912,-6.25195 -4.408203,0 -8.816406,0 -13.224609,0 C 72.707911,73.738234 71.847612,70.08004 69.623047,67.052734 69.022414,66.331608 68.199766,65.620789 67.197266,65.6875 Z"
       inkscape:export-filename="D:\SourceControl\AmplitudeSoundboard\Branding\IconLin.png"
       inkscape:export-xdpi="80.13913"
       inkscape:export-ydpi="80.13913" />
    <path
       id="path37630"
       style="fill:#252a36;stroke:#ebaeff;stroke-width:0.565;stroke-linecap:butt;stroke-linejoin:miter;stroke-opacity:1;fill-opacity:1;stroke-miterlimit:4;stroke-dasharray:none"
       d="m 67.126042,68.922005 c -1.41535,0.303572 -2.017056,1.838596 -2.555756,3.020367 -0.294635,0.695927 -0.508666,1.421194 -0.733307,2.141742 2.242839,0 4.485678,0 6.728516,0 -0.563766,-1.698007 -0.930047,-3.658563 -2.355469,-4.875 -0.322533,-0.207987 -0.69655,-0.340114 -1.083984,-0.287109 z"
       inkscape:export-filename="D:\SourceControl\AmplitudeSoundboard\Branding\IconLin.png"
       inkscape:export-xdpi="80.13913"
       inkscape:export-ydpi="80.13913" />
    <path
       id="path37630-3"
       style="fill:#252a36;stroke:#ebaeff;stroke-width:0.565;stroke-linecap:butt;stroke-linejoin:miter;stroke-opacity:1;fill-opacity:1;stroke-miterlimit:4;stroke-dasharray:none"
       d="m 80.433334,85.989583 c 1.41535,-0.303572 2.017056,-1.838596 2.555756,-3.020367 0.294635,-0.695927 0.508666,-1.421194 0.733307,-2.141742 -2.242839,0 -4.485678,0 -6.728516,0 0.563766,1.698007 0.930047,3.658563 2.355469,4.875 0.322533,0.207987 0.69655,0.340114 1.083984,0.287109 z"
       inkscape:export-filename="D:\SourceControl\AmplitudeSoundboard\Branding\IconLin.png"
       inkscape:export-xdpi="80.13913"
       inkscape:export-ydpi="80.13913" />
    <text
       xml:space="preserve"
       style="font-style:normal;font-weight:normal;font-size:3.65045px;line-height:1.25;font-family:sans-serif;fill:#ebaeff;fill-opacity:1;stroke:none;stroke-width:0.248893"
       x="57.693863"
       y="71.50882"
       id="text38830"
       transform="matrix(0.94070086,0,0.27480618,1.0630372,0,0)"
       inkscape:export-filename="D:\SourceControl\AmplitudeSoundboard\Branding\IconLin.png"
       inkscape:export-xdpi="80.13913"
       inkscape:export-ydpi="80.13913"><tspan
         sodipodi:role="line"
         id="tspan38828"
         style="font-style:normal;font-variant:normal;font-weight:normal;font-stretch:normal;font-size:3.65045px;font-family:'Josefin Sans';-inkscape-font-specification:'Josefin Sans';fill:#ebaeff;fill-opacity:1;stroke-width:0.248893"
         x="57.693863"
         y="71.50882">mplitude</tspan></text>
  </g>
</svg>
